<svg width="200" height="200" viewBox="0 0 200 200" fill="none" xmlns="http://www.w3.org/2000/svg">
<circle cx="100" cy="100" r="100" fill="white"/>
<path d="M88.9449 69.175H84.5288V63.9454H82.9943V59.0749H82.1414V57.7314H80.2692V59.1485H79.3943V63.9605H78.5423V65.5185H62.4272C62.1968 65.5185 62.01 65.3616 62.01 65.168C62.01 64.9744 62.1968 64.8175 62.4272 64.8175H77.7077V63.2595H78.5597V58.4475H79.4346V57.0304H82.9758V58.3739H83.8286V63.2445H85.3631V68.474H88.1103V59.3763H89.2185V51.7837H89.9011V46.698H94.8287V51.5685H96.7898V59.0903H97.7277V67.9728H101.188L102.911 66.9696H106.01L106.529 67.4053V59.6629H107.893V58.732H112.31V59.5199H113.588V63.3166H118.449V65.1785H120.343V59.453L123.096 58.875H130.131V63.2444H136.795C137.026 63.2444 137.212 63.4013 137.212 63.5948C137.212 63.7884 137.026 63.9453 136.795 63.9453H129.296V59.576H123.199L121.177 60.0004V65.8795H117.614V64.0175H112.753V60.2209H111.475V59.433H108.728V60.3639H107.363V69.0967L105.664 67.6705H103.172L101.449 68.6737H96.8931V59.7912H95.9552V52.2694H93.9941V47.3989H90.7354V52.4846H90.0528V60.0772H88.9446V69.175H88.9449Z" fill="#F8B500"/>
<path d="M91.2565 47.2416C91.0619 47.2416 90.9041 47.1091 90.9041 46.9455V42.6027C90.9041 42.4392 91.0618 42.3066 91.2565 42.3066C91.4512 42.3066 91.6089 42.4391 91.6089 42.6027V46.9455C91.6089 47.1091 91.451 47.2416 91.2565 47.2416Z" fill="#F8B500"/>
<path d="M93.3885 47.2415C93.194 47.2415 93.0361 47.109 93.0361 46.9454V42.296C93.0361 42.1326 93.1938 42 93.3885 42C93.5832 42 93.741 42.1325 93.741 42.296V46.9454C93.7408 47.109 93.5831 47.2415 93.3885 47.2415Z" fill="#F8B500"/>
<path d="M108.993 59.4332C108.762 59.4332 108.575 59.2763 108.575 59.0827V57.1486C108.575 56.955 108.762 56.7981 108.993 56.7981C109.223 56.7981 109.41 56.955 109.41 57.1486V59.0827C109.41 59.2763 109.223 59.4332 108.993 59.4332Z" fill="#F8B500"/>
<path d="M110.954 59.4331C110.723 59.4331 110.536 59.2762 110.536 59.0826V57.1757C110.536 56.9821 110.723 56.8252 110.954 56.8252C111.184 56.8252 111.371 56.9821 111.371 57.1757V59.0826C111.371 59.2762 111.184 59.4331 110.954 59.4331Z" fill="#F8B500"/>
<path d="M59.8945 91.2778C59.8945 88.3027 54.3662 83.9489 44.0005 83.9489C32.08 83.9489 23.6147 90.9876 23.6147 107.387C23.6147 121.537 30.3524 130.462 44.0005 130.462C54.1934 130.462 60.8447 124.512 62.3132 121.247C62.3996 121.029 62.5723 120.956 62.7451 120.956C63.0906 120.956 63.2634 121.174 63.177 121.464C62.486 123.278 60.3264 125.818 57.044 127.85C53.6751 129.954 49.0106 131.623 43.4822 131.623C27.1563 131.623 18 121.392 18 107.387C18 90.9876 29.4022 83.0781 43.1367 83.0781C56.0074 83.0781 63.3498 88.9558 63.3498 94.6157C63.3498 97.736 61.4494 99.0421 59.6354 99.0421C57.9078 99.0421 56.2666 97.9537 56.2666 96.2121C56.2666 93.745 59.8945 93.3096 59.8945 91.2778V91.2778ZM85.7223 130.535C85.9815 130.535 86.1542 130.68 86.1542 130.898C86.1542 131.115 85.9815 131.26 85.7223 131.26H71.6423C71.3831 131.26 71.2104 131.115 71.2104 130.898C71.2104 130.68 71.3831 130.535 71.6423 130.535H74.1473C75.2703 130.535 75.9613 129.809 75.9613 129.011V85.6904C75.9613 84.8922 75.2703 84.1666 74.1473 84.1666H71.6423C71.3831 84.1666 71.2104 84.0215 71.2104 83.8038C71.2104 83.5861 71.3831 83.4409 71.6423 83.4409H85.7223C85.9815 83.4409 86.1542 83.5861 86.1542 83.8038C86.1542 84.0215 85.9815 84.1666 85.7223 84.1666H83.2173C82.0943 84.1666 81.4033 84.8922 81.4033 85.6904V129.011C81.4033 129.809 82.0943 130.535 83.2173 130.535H85.7223ZM133.059 83.4409V95.9944C133.059 96.2121 132.886 96.3573 132.627 96.3573C132.368 96.3573 132.195 96.2121 132.195 95.9944V92.3663C132.195 87.3594 128.653 84.1666 121.57 84.1666H116.474C115.351 84.1666 114.66 84.8922 114.66 85.6904V129.011C114.66 129.809 115.351 130.535 116.474 130.535H118.979C119.238 130.535 119.411 130.68 119.411 130.898C119.411 131.115 119.238 131.26 118.979 131.26H104.899C104.64 131.26 104.467 131.115 104.467 130.898C104.467 130.68 104.64 130.535 104.899 130.535H107.404C108.527 130.535 109.218 129.809 109.218 129.011V85.6904C109.218 84.8922 108.527 84.1666 107.404 84.1666H104.035C96.088 84.1666 91.6826 86.6337 91.6826 93.8175V95.9944C91.6826 96.2121 91.5098 96.3573 91.2507 96.3573C90.9915 96.3573 90.8188 96.2121 90.8188 95.9944V83.4409H133.059V83.4409ZM180.568 83.4409C180.827 83.4409 181 83.5861 181 83.8038C181 84.0215 180.827 84.1666 180.568 84.1666H178.668C177.458 84.1666 176.508 84.6745 175.99 85.6904L161.132 110.289V129.011C161.132 129.809 161.824 130.535 162.946 130.535H165.452C165.711 130.535 165.883 130.68 165.883 130.898C165.883 131.115 165.711 131.26 165.452 131.26H151.371C151.112 131.26 150.94 131.115 150.94 130.898C150.94 130.68 151.112 130.535 151.371 130.535H153.877C154.999 130.535 155.691 129.809 155.691 129.011V111.233L140.056 85.6904C139.537 84.8922 138.846 84.1666 137.032 84.1666H135.65C135.391 84.1666 135.218 84.0215 135.218 83.8038C135.218 83.5861 135.391 83.4409 135.65 83.4409H150.162C150.421 83.4409 150.594 83.5861 150.594 83.8038C150.594 84.0215 150.421 84.1666 150.162 84.1666H147.484C146.189 84.1666 146.016 84.9648 146.448 85.6904L160.614 109.564L174.953 85.6904C175.385 84.9648 175.126 84.1666 173.571 84.1666H171.498C171.239 84.1666 171.066 84.0215 171.066 83.8038C171.066 83.5861 171.239 83.4409 171.498 83.4409H180.568V83.4409Z" fill="black"/>
<path d="M44.5386 156.73H43.1822L43.1643 151.633H38.8808L38.8987 156.73H37.5601V145.485H38.8987L38.8808 150.568H43.1643L43.1822 145.485H44.5386V156.73ZM54.8178 153.822C54.8178 154.881 54.5352 155.653 53.97 156.138C53.4048 156.623 52.4857 156.865 51.2125 156.865C50.0464 156.865 49.1926 156.595 48.6513 156.056C48.11 155.516 47.8392 154.771 47.8392 153.822V148.424C47.8392 147.394 48.1277 146.63 48.7048 146.13C49.2819 145.63 50.1892 145.38 51.4267 145.38C52.6046 145.38 53.4644 145.643 54.0057 146.168C54.547 146.692 54.8178 147.434 54.8178 148.394V153.822ZM53.5684 153.792L53.5684 148.379C53.5684 147.809 53.3899 147.335 53.033 146.955C52.676 146.575 52.1346 146.385 51.4088 146.385C50.5402 146.385 49.9363 146.575 49.5972 146.955C49.2581 147.334 49.0885 147.869 49.0885 148.559V153.732C49.0885 154.021 49.1272 154.294 49.2046 154.549C49.2819 154.804 49.4068 155.026 49.5794 155.216C49.7519 155.406 49.972 155.556 50.2397 155.666C50.5075 155.776 50.8317 155.831 51.2125 155.831C52.0454 155.831 52.6463 155.661 53.0151 155.321C53.3839 154.981 53.5684 154.471 53.5684 153.792H53.5684ZM64.2224 146.58H61.4559V156.73H60.1352V146.58H57.3687V145.485H64.2224V146.58V146.58ZM73.8054 156.73H67.1124V145.485H73.6805V146.625H68.3439V150.493H73.6448V151.468H68.3439V155.591H73.8054V156.73V156.73ZM82.4782 156.73H76.9632V145.485H78.2126V155.651H82.4782V156.73V156.73ZM97.2537 153.387C97.2537 154.436 96.9027 155.256 96.2007 155.846C95.4987 156.435 94.523 156.73 93.2736 156.73H90.2038V145.485H92.8631C94.0411 145.485 94.9483 145.728 95.585 146.212C96.2216 146.697 96.5398 147.439 96.5398 148.439C96.5398 148.859 96.403 149.251 96.1293 149.616C95.8557 149.981 95.5284 150.293 95.1477 150.553C95.7545 150.883 96.2572 151.278 96.6558 151.737C97.0545 152.197 97.2537 152.747 97.2537 153.387ZM95.3619 148.439C95.3619 147.889 95.1834 147.432 94.8264 147.067C94.4694 146.702 93.9459 146.52 93.2558 146.52H91.4353V150.163H93.4343C93.7198 150.163 93.9786 150.116 94.2107 150.021C94.4427 149.926 94.645 149.801 94.8175 149.646C94.99 149.491 95.1239 149.309 95.2191 149.099C95.3143 148.889 95.3619 148.669 95.3619 148.439V148.439ZM96.0579 153.447C96.0579 152.727 95.82 152.17 95.344 151.775C94.8681 151.38 94.2077 151.183 93.3629 151.183H91.4353V155.666H93.0773C93.4938 155.666 93.8834 155.621 94.2464 155.531C94.6093 155.441 94.9246 155.306 95.1923 155.126C95.46 154.946 95.6712 154.716 95.8259 154.436C95.9806 154.156 96.0579 153.827 96.0579 153.447H96.0579ZM106.962 153.822C106.962 154.881 106.679 155.653 106.114 156.138C105.549 156.623 104.63 156.865 103.356 156.865C102.19 156.865 101.337 156.595 100.795 156.056C100.254 155.516 99.9832 154.771 99.9832 153.822V148.424C99.9832 147.394 100.272 146.63 100.849 146.13C101.426 145.63 102.333 145.38 103.571 145.38C104.749 145.38 105.608 145.643 106.15 146.168C106.691 146.692 106.962 147.434 106.962 148.394V153.822V153.822ZM105.712 153.792L105.712 148.379C105.712 147.809 105.534 147.335 105.177 146.955C104.82 146.575 104.279 146.385 103.553 146.385C102.684 146.385 102.08 146.575 101.741 146.955C101.402 147.334 101.233 147.869 101.233 148.559V153.732C101.233 154.021 101.271 154.294 101.349 154.549C101.426 154.804 101.551 155.026 101.723 155.216C101.896 155.406 102.116 155.556 102.384 155.666C102.651 155.776 102.976 155.831 103.356 155.831C104.189 155.831 104.79 155.661 105.159 155.321C105.528 154.981 105.712 154.471 105.712 153.792H105.712ZM117.437 153.822C117.437 154.821 117.149 155.578 116.572 156.093C115.994 156.608 115.105 156.865 113.903 156.865C112.761 156.865 111.901 156.59 111.324 156.041C110.747 155.491 110.459 154.751 110.459 153.822V145.485H111.726V153.777C111.726 154.056 111.77 154.319 111.86 154.564C111.949 154.809 112.083 155.023 112.261 155.208C112.44 155.393 112.663 155.538 112.931 155.643C113.198 155.748 113.511 155.801 113.868 155.801C114.736 155.801 115.34 155.598 115.679 155.193C116.018 154.789 116.188 154.246 116.188 153.567V145.485H117.437V153.822L117.437 153.822ZM127.145 146.58H124.379V156.73H123.058V146.58H120.292V145.485H127.145V146.58ZM131.552 156.73H130.214V145.485H131.552V156.73ZM142.867 156.235L142.135 157L140.939 156.115C140.582 156.375 140.183 156.565 139.743 156.685C139.303 156.805 138.851 156.865 138.387 156.865C137.828 156.865 137.337 156.79 136.914 156.64C136.492 156.49 136.138 156.28 135.852 156.011C135.567 155.741 135.353 155.418 135.21 155.043C135.067 154.669 134.996 154.256 134.996 153.807V148.409C134.996 147.439 135.296 146.692 135.897 146.168C136.498 145.643 137.381 145.38 138.547 145.38C139.095 145.38 139.58 145.455 140.002 145.605C140.424 145.755 140.778 145.963 141.064 146.227C141.35 146.492 141.567 146.81 141.715 147.18C141.864 147.549 141.939 147.954 141.939 148.394V153.807C141.939 154.356 141.826 154.866 141.599 155.336L142.867 156.235ZM140.689 153.926L140.689 148.244C140.689 147.654 140.511 147.182 140.154 146.827C139.797 146.472 139.25 146.295 138.512 146.295C138.072 146.295 137.706 146.34 137.414 146.43C137.123 146.52 136.891 146.655 136.718 146.835C136.546 147.015 136.424 147.237 136.352 147.502C136.281 147.767 136.245 148.069 136.245 148.409V153.867C136.245 154.146 136.293 154.409 136.388 154.654C136.483 154.899 136.626 155.113 136.816 155.298C137.007 155.483 137.239 155.631 137.512 155.741C137.786 155.851 138.095 155.906 138.44 155.906C138.714 155.906 138.988 155.871 139.261 155.801C139.535 155.731 139.779 155.616 139.993 155.456L138.208 154.211L138.904 153.477L140.582 154.616C140.606 154.506 140.63 154.394 140.654 154.279C140.677 154.164 140.689 154.046 140.689 153.926L140.689 153.926ZM152.182 153.822C152.182 154.821 151.893 155.578 151.316 156.093C150.739 156.608 149.85 156.865 148.648 156.865C147.506 156.865 146.646 156.59 146.069 156.041C145.492 155.491 145.203 154.751 145.203 153.822V145.485H146.471V153.777C146.471 154.056 146.515 154.319 146.604 154.564C146.694 154.809 146.828 155.023 147.006 155.208C147.185 155.393 147.408 155.538 147.675 155.643C147.943 155.748 148.255 155.801 148.612 155.801C149.481 155.801 150.085 155.598 150.424 155.193C150.763 154.789 150.933 154.246 150.933 153.567V145.485H152.182V153.822L152.182 153.822ZM162.033 156.73H155.34V145.485H161.908V146.625H156.571V150.493H161.872V151.468H156.571V155.591H162.033V156.73V156.73Z" fill="#F8B500"/>
</svg>
