<svg width="163" height="115" viewBox="0 0 163 115" fill="none" xmlns="http://www.w3.org/2000/svg">
<path d="M70.9449 27.175H66.5288V21.9454H64.9943V17.0749H64.1414V15.7314H62.2692V17.1485H61.3943V21.9605H60.5423V23.5185H44.4272C44.1968 23.5185 44.01 23.3616 44.01 23.168C44.01 22.9744 44.1968 22.8175 44.4272 22.8175H59.7077V21.2595H60.5597V16.4475H61.4346V15.0304H64.9758V16.3739H65.8286V21.2445H67.3631V26.474H70.1103V17.3763H71.2185V9.78375H71.9011V4.698H76.8287V9.56854H78.7898V17.0903H79.7277V25.9728H83.1879L84.9107 24.9696H88.01L88.529 25.4053V17.6629H89.8935V16.732H94.3096V17.5199H95.5878V21.3166H100.449V23.1785H102.343V17.453L105.096 16.875H112.131V21.2444H118.795C119.026 21.2444 119.212 21.4013 119.212 21.5948C119.212 21.7884 119.026 21.9453 118.795 21.9453H111.296V17.576H105.199L103.177 18.0004V23.8795H99.6144V22.0175H94.7534V18.2209H93.4751V17.433H90.7279V18.3639H89.3635V27.0967L87.6644 25.6705H85.1716L83.4488 26.6737H78.8931V17.7912H77.9552V10.2694H75.9941V5.39886H72.7354V10.4846H72.0528V18.0772H70.9446V27.175H70.9449Z" fill="#F8B500"/>
<path d="M73.2565 5.24156C73.0619 5.24156 72.9041 5.10907 72.9041 4.94551V0.602689C72.9041 0.439243 73.0618 0.306641 73.2565 0.306641C73.4512 0.306641 73.6089 0.439126 73.6089 0.602689V4.94551C73.6089 5.10907 73.451 5.24156 73.2565 5.24156Z" fill="#F8B500"/>
<path d="M75.3885 5.24147C75.194 5.24147 75.0361 5.10899 75.0361 4.94543V0.296047C75.0361 0.132602 75.1938 0 75.3885 0C75.5832 0 75.741 0.132485 75.741 0.296047V4.94543C75.7408 5.10899 75.5831 5.24147 75.3885 5.24147Z" fill="#F8B500"/>
<path d="M90.9927 17.4332C90.7622 17.4332 90.5754 17.2763 90.5754 17.0827V15.1486C90.5754 14.955 90.7622 14.7981 90.9927 14.7981C91.2231 14.7981 91.4099 14.955 91.4099 15.1486V17.0827C91.4099 17.2763 91.2231 17.4332 90.9927 17.4332Z" fill="#F8B500"/>
<path d="M92.9536 17.4331C92.7232 17.4331 92.5364 17.2762 92.5364 17.0826V15.1757C92.5364 14.9821 92.7232 14.8252 92.9536 14.8252C93.1841 14.8252 93.3708 14.9821 93.3708 15.1757V17.0826C93.3708 17.2762 93.1841 17.4331 92.9536 17.4331Z" fill="#F8B500"/>
<path d="M41.8945 49.2778C41.8945 46.3027 36.3662 41.9489 26.0005 41.9489C14.08 41.9489 5.61473 48.9876 5.61473 65.3869C5.61473 79.5368 12.3524 88.4622 26.0005 88.4622C36.1934 88.4622 42.8447 82.5119 44.3132 79.2466C44.3996 79.0289 44.5723 78.9563 44.7451 78.9563C45.0906 78.9563 45.2634 79.174 45.177 79.4643C44.486 81.2784 42.3264 83.8181 39.044 85.8499C35.6751 87.9542 31.0106 89.6232 25.4822 89.6232C9.15633 89.6232 0 79.3917 0 65.3869C0 48.9876 11.4022 41.0781 25.1367 41.0781C38.0074 41.0781 45.3498 46.9558 45.3498 52.6157C45.3498 55.736 43.4494 57.0421 41.6354 57.0421C39.9078 57.0421 38.2666 55.9537 38.2666 54.2121C38.2666 51.745 41.8945 51.3096 41.8945 49.2778V49.2778ZM67.7223 88.5347C67.9815 88.5347 68.1542 88.6798 68.1542 88.8975C68.1542 89.1152 67.9815 89.2604 67.7223 89.2604H53.6423C53.3831 89.2604 53.2104 89.1152 53.2104 88.8975C53.2104 88.6798 53.3831 88.5347 53.6423 88.5347H56.1473C57.2703 88.5347 57.9613 87.8091 57.9613 87.0109V43.6904C57.9613 42.8922 57.2703 42.1666 56.1473 42.1666H53.6423C53.3831 42.1666 53.2104 42.0215 53.2104 41.8038C53.2104 41.5861 53.3831 41.4409 53.6423 41.4409H67.7223C67.9815 41.4409 68.1542 41.5861 68.1542 41.8038C68.1542 42.0215 67.9815 42.1666 67.7223 42.1666H65.2173C64.0943 42.1666 63.4033 42.8922 63.4033 43.6904V87.0109C63.4033 87.8091 64.0943 88.5347 65.2173 88.5347H67.7223ZM115.059 41.4409V53.9944C115.059 54.2121 114.886 54.3573 114.627 54.3573C114.368 54.3573 114.195 54.2121 114.195 53.9944V50.3663C114.195 45.3594 110.653 42.1666 103.57 42.1666H98.4738C97.3508 42.1666 96.6598 42.8922 96.6598 43.6904V87.0109C96.6598 87.8091 97.3508 88.5347 98.4738 88.5347H100.979C101.238 88.5347 101.411 88.6798 101.411 88.8975C101.411 89.1152 101.238 89.2604 100.979 89.2604H86.8988C86.6396 89.2604 86.4669 89.1152 86.4669 88.8975C86.4669 88.6798 86.6396 88.5347 86.8988 88.5347H89.4038C90.5268 88.5347 91.2178 87.8091 91.2178 87.0109V43.6904C91.2178 42.8922 90.5268 42.1666 89.4038 42.1666H86.035C78.088 42.1666 73.6826 44.6337 73.6826 51.8175V53.9944C73.6826 54.2121 73.5098 54.3573 73.2507 54.3573C72.9915 54.3573 72.8188 54.2121 72.8188 53.9944V41.4409H115.059V41.4409ZM162.568 41.4409C162.827 41.4409 163 41.5861 163 41.8038C163 42.0215 162.827 42.1666 162.568 42.1666H160.668C159.458 42.1666 158.508 42.6745 157.99 43.6904L143.132 68.2895V87.0109C143.132 87.8091 143.824 88.5347 144.946 88.5347H147.452C147.711 88.5347 147.883 88.6798 147.883 88.8975C147.883 89.1152 147.711 89.2604 147.452 89.2604H133.371C133.112 89.2604 132.94 89.1152 132.94 88.8975C132.94 88.6798 133.112 88.5347 133.371 88.5347H135.877C136.999 88.5347 137.691 87.8091 137.691 87.0109V69.2328L122.056 43.6904C121.537 42.8922 120.846 42.1666 119.032 42.1666H117.65C117.391 42.1666 117.218 42.0215 117.218 41.8038C117.218 41.5861 117.391 41.4409 117.65 41.4409H132.162C132.421 41.4409 132.594 41.5861 132.594 41.8038C132.594 42.0215 132.421 42.1666 132.162 42.1666H129.484C128.189 42.1666 128.016 42.9648 128.448 43.6904L142.614 67.5638L156.953 43.6904C157.385 42.9648 157.126 42.1666 155.571 42.1666H153.498C153.239 42.1666 153.066 42.0215 153.066 41.8038C153.066 41.5861 153.239 41.4409 153.498 41.4409H162.568V41.4409Z" fill="black"/>
<path d="M26.5386 114.73H25.1822L25.1643 109.633H20.8808L20.8987 114.73H19.5601V103.485H20.8987L20.8808 108.568H25.1643L25.1822 103.485H26.5386V114.73ZM36.8178 111.822C36.8178 112.881 36.5352 113.653 35.97 114.138C35.4048 114.623 34.4857 114.865 33.2125 114.865C32.0464 114.865 31.1926 114.595 30.6513 114.056C30.11 113.516 29.8392 112.771 29.8392 111.822V106.424C29.8392 105.394 30.1277 104.63 30.7048 104.13C31.2819 103.63 32.1892 103.38 33.4267 103.38C34.6046 103.38 35.4644 103.643 36.0057 104.168C36.547 104.692 36.8178 105.434 36.8178 106.394V111.822ZM35.5684 111.792L35.5684 106.379C35.5684 105.809 35.3899 105.335 35.033 104.955C34.676 104.575 34.1346 104.385 33.4088 104.385C32.5402 104.385 31.9363 104.575 31.5972 104.955C31.2581 105.334 31.0885 105.869 31.0885 106.559V111.732C31.0885 112.021 31.1272 112.294 31.2046 112.549C31.2819 112.804 31.4068 113.026 31.5794 113.216C31.7519 113.406 31.972 113.556 32.2397 113.666C32.5075 113.776 32.8317 113.831 33.2125 113.831C34.0454 113.831 34.6463 113.661 35.0151 113.321C35.3839 112.981 35.5684 112.471 35.5684 111.792H35.5684ZM46.2224 104.58H43.4559V114.73H42.1352V104.58H39.3687V103.485H46.2224V104.58V104.58ZM55.8054 114.73H49.1124V103.485H55.6805V104.625H50.3439V108.493H55.6448V109.468H50.3439V113.591H55.8054V114.73V114.73ZM64.4782 114.73H58.9632V103.485H60.2126V113.651H64.4782V114.73V114.73ZM79.2537 111.387C79.2537 112.436 78.9027 113.256 78.2007 113.846C77.4987 114.435 76.523 114.73 75.2736 114.73H72.2038V103.485H74.8631C76.0411 103.485 76.9483 103.728 77.585 104.212C78.2216 104.697 78.5398 105.439 78.5398 106.439C78.5398 106.859 78.403 107.251 78.1293 107.616C77.8557 107.981 77.5284 108.293 77.1477 108.553C77.7545 108.883 78.2572 109.278 78.6558 109.737C79.0545 110.197 79.2537 110.747 79.2537 111.387ZM77.3619 106.439C77.3619 105.889 77.1834 105.432 76.8264 105.067C76.4694 104.702 75.9459 104.52 75.2558 104.52H73.4353V108.163H75.4343C75.7198 108.163 75.9786 108.116 76.2107 108.021C76.4427 107.926 76.645 107.801 76.8175 107.646C76.99 107.491 77.1239 107.309 77.2191 107.099C77.3143 106.889 77.3619 106.669 77.3619 106.439V106.439ZM78.0579 111.447C78.0579 110.727 77.82 110.17 77.344 109.775C76.8681 109.38 76.2077 109.183 75.3629 109.183H73.4353V113.666H75.0773C75.4938 113.666 75.8834 113.621 76.2464 113.531C76.6093 113.441 76.9246 113.306 77.1923 113.126C77.46 112.946 77.6712 112.716 77.8259 112.436C77.9806 112.156 78.0579 111.827 78.0579 111.447H78.0579ZM88.9617 111.822C88.9617 112.881 88.6792 113.653 88.114 114.138C87.5488 114.623 86.6296 114.865 85.3564 114.865C84.1903 114.865 83.3366 114.595 82.7952 114.056C82.2539 113.516 81.9832 112.771 81.9832 111.822V106.424C81.9832 105.394 82.2717 104.63 82.8488 104.13C83.4259 103.63 84.3331 103.38 85.5706 103.38C86.7486 103.38 87.6083 103.643 88.1497 104.168C88.691 104.692 88.9617 105.434 88.9617 106.394V111.822V111.822ZM87.7124 111.792L87.7124 106.379C87.7124 105.809 87.5339 105.335 87.1769 104.955C86.82 104.575 86.2785 104.385 85.5527 104.385C84.6841 104.385 84.0803 104.575 83.7412 104.955C83.4021 105.334 83.2325 105.869 83.2325 106.559V111.732C83.2325 112.021 83.2712 112.294 83.3485 112.549C83.4258 112.804 83.5508 113.026 83.7233 113.216C83.8959 113.406 84.116 113.556 84.3837 113.666C84.6514 113.776 84.9757 113.831 85.3564 113.831C86.1893 113.831 86.7902 113.661 87.1591 113.321C87.5279 112.981 87.7124 112.471 87.7124 111.792H87.7124ZM99.4372 111.822C99.4372 112.821 99.1486 113.578 98.5716 114.093C97.9945 114.608 97.1051 114.865 95.9033 114.865C94.761 114.865 93.9013 114.59 93.3242 114.041C92.7472 113.491 92.4586 112.751 92.4586 111.822V103.485H93.7258V111.777C93.7258 112.056 93.7704 112.319 93.8597 112.564C93.9489 112.809 94.0828 113.023 94.2613 113.208C94.4397 113.393 94.6628 113.538 94.9306 113.643C95.1983 113.748 95.5106 113.801 95.8676 113.801C96.7362 113.801 97.34 113.598 97.6792 113.193C98.0183 112.789 98.1878 112.246 98.1878 111.567V103.485H99.4372V111.822L99.4372 111.822ZM109.145 104.58H106.379V114.73H105.058V104.58H102.292V103.485H109.145V104.58ZM113.552 114.73H112.214V103.485H113.552V114.73ZM124.867 114.235L124.135 115L122.939 114.115C122.582 114.375 122.183 114.565 121.743 114.685C121.303 114.805 120.851 114.865 120.387 114.865C119.828 114.865 119.337 114.79 118.914 114.64C118.492 114.49 118.138 114.28 117.852 114.011C117.567 113.741 117.353 113.418 117.21 113.043C117.067 112.669 116.996 112.256 116.996 111.807V106.409C116.996 105.439 117.296 104.692 117.897 104.168C118.498 103.643 119.381 103.38 120.547 103.38C121.095 103.38 121.58 103.455 122.002 103.605C122.424 103.755 122.778 103.963 123.064 104.227C123.35 104.492 123.567 104.81 123.715 105.18C123.864 105.549 123.939 105.954 123.939 106.394V111.807C123.939 112.356 123.826 112.866 123.599 113.336L124.867 114.235ZM122.689 111.926L122.689 106.244C122.689 105.654 122.511 105.182 122.154 104.827C121.797 104.472 121.25 104.295 120.512 104.295C120.072 104.295 119.706 104.34 119.414 104.43C119.123 104.52 118.891 104.655 118.718 104.835C118.546 105.015 118.424 105.237 118.352 105.502C118.281 105.767 118.245 106.069 118.245 106.409V111.867C118.245 112.146 118.293 112.409 118.388 112.654C118.483 112.899 118.626 113.113 118.816 113.298C119.007 113.483 119.239 113.631 119.512 113.741C119.786 113.851 120.095 113.906 120.44 113.906C120.714 113.906 120.988 113.871 121.261 113.801C121.535 113.731 121.779 113.616 121.993 113.456L120.208 112.211L120.904 111.477L122.582 112.616C122.606 112.506 122.63 112.394 122.654 112.279C122.677 112.164 122.689 112.046 122.689 111.926L122.689 111.926ZM134.182 111.822C134.182 112.821 133.893 113.578 133.316 114.093C132.739 114.608 131.85 114.865 130.648 114.865C129.506 114.865 128.646 114.59 128.069 114.041C127.492 113.491 127.203 112.751 127.203 111.822V103.485H128.471V111.777C128.471 112.056 128.515 112.319 128.604 112.564C128.694 112.809 128.828 113.023 129.006 113.208C129.185 113.393 129.408 113.538 129.675 113.643C129.943 113.748 130.255 113.801 130.612 113.801C131.481 113.801 132.085 113.598 132.424 113.193C132.763 112.789 132.933 112.246 132.933 111.567V103.485H134.182V111.822L134.182 111.822ZM144.033 114.73H137.34V103.485H143.908V104.625H138.571V108.493H143.872V109.468H138.571V113.591H144.033V114.73V114.73Z" fill="#F8B500"/>
</svg>
